# xmcd
#
# Track frame offsets:
#	150
#	17654
#	32911
#	54492
#	71642
#	88294
#	105669
#	123749
#	136885
#	154389
#	169646
#	191227
#	208377
#	225029
#	242404
#	260484
#
# Disc length: 3648 seconds
#
# Revision: 1
# Processed by: cddbd v1.5.2PL0 Copyright (c) Steve Scherf et al.
# Submitted via: audiograbber 1.83.01
#
DISCID=e20e3e10
DTITLE=Various Artist - CB60388M
DYEAR=2008
DGENRE=Karaoke
TTITLE0=Carolina Rain - American Radio
TTITLE1=Gracin, Josh - Unbelievable (Ann Marie)
TTITLE2=Sugarland - Already Gone
TTITLE3=Turner, Josh - Everything Si Fine
TTITLE4=Lambert, Miranda - More Like Her
TTITLE5=Stacey, Phil - Old Glory
TTITLE6=Carters Chord - Different Breed
TTITLE7=Cochran, Stephen - Thinkin' I'm Dreamin'
TTITLE8=Carolina Rain - American Radio w/vocals
TTITLE9=Gracin, Josh - Unbelievable (Ann Marie) w/vocals
TTITLE10=Sugarland - Already Gone w/vocals
TTITLE11=Turner, Josh - Everything Si Fine w/vocals
TTITLE12=Lambert, Miranda - More Like Her w/vocals
TTITLE13=Stacey, Phil - Old Glory w/vocals
TTITLE14=Carters Chord - Different Breed w/vocals
TTITLE15=Cochran, Stephen - Thinkin' I'm Dreamin' w/vocals
EXTD=
EXTT0=
EXTT1=
EXTT2=
EXTT3=
EXTT4=
EXTT5=
EXTT6=
EXTT7=
EXTT8=
EXTT9=
EXTT10=
EXTT11=
EXTT12=
EXTT13=
EXTT14=
EXTT15=
PLAYORDER=
